Color
C

Release Date
October 23, 1992

Language
Hindi

Genre
Action

Producer
Salim Akhtar

Director
Farouq Siddique

Star Cast
Ajay Devgn...... 'Raju' Raj Verma
Karisma Kapoor...... Suman
Arjun...... Duryodhan
Aruna Irani...... Raju's Mother
Ajit...... Baba Thakur (Karate instructor)
Gulshan Grover...... Inspector. Pradhan
Paresh Rawal...... Lal Behari
Ishrat Ali...... Inspector. Khatre
Vikas Anand
Goga Kapoor
Shashi Kiran...... Inspector. Khan
Madhavi
Yunus Parvez
Asha Sharma
Gurbachan
Sudhir
Brijesh Tiwari
Husen Khan

Cinematography
Akram Khan

Choreography
Chinni Prakash
Raju Khan

Action
Jai Singh Nijjar
Veeru Devgan

Art
Sudhir Tarkar

Editor
Suresh Chaturvedi

Dialogue
Naeem Ejaz
Tanveer Khan
Naeem Sha

Story / Writer
Farouq Siddique
Lalit Mahajan


Ripper                           : Rahul (XMR)
Complete name                    : Jigar 1992 2CD DvDrip x264 ~ Action ~ [RdY]
Format                           : Matroska
File size                        : 1.48 GiB
Duration                         : 2h 56mn
Overall bit rate                 : 1 199 Kbps
Encoded date                     : UTC 2011-09-24 12:16:48


Video
ID                               : 1
Format                           : AVC
Format/Info                      : Advanced Video Codec
Format profile                   : High@L3.0
Format settings, CABAC           : Yes
Format settings, ReFrames        : 4 frames
Format settings, GOP             : N=1
Muxing mode                      : Header stripping
Codec ID                         : V_MPEG4/ISO/AVC
Duration                         : 2h 56mn
Bit rate                         : 974 Kbps
Width                            : 720 pixels
Height                           : 384 pixels
Display aspect ratio             : 1.875
Frame rate                       : 23.976 fps
Color space                      : YUV
Chroma subsampling               : 4.2.0
Bit depth                        : 8 bits
Scan type                        : Progressive
Bits/(Pixel*Frame)               : 0.147
Stream size                      : 1.18 GiB (79%)
Writing library                  : x264 core 116 r2074 2641b9e


Audio
ID                               : 2
Format                           : AC-3
Format/Info                      : Audio Coding 3
Mode extension                   : CM (complete main)
Muxing mode                      : Header stripping
Codec ID                         : A_AC3
Duration                         : 2h 56mn
Bit rate mode                    : Constant
Bit rate                         : 224 Kbps
Channel(s)                       : 2 channels
Channel positions                : Front: L R
Sampling rate                    : 48.0 KHz
Bit depth                        : 16 bits
Compression mode                 : Lossy
Stream size                      : 283 MiB (19%)

 
http://desibbrg.org/images/42653277472552411376.jpg 
http://desibbrg.org/images/23853330609171674486.jpg 
http://desibbrg.org/images/84329137021881967330.jpg 
http://desibbrg.org/images/97884981910582280379.jpg 
http://desibbrg.org/images/39518514902729152047.jpg 
http://desibbrg.org/images/56975700715711927080.jpg 
http://desibbrg.org/images/58991397641772062090.jpg 
http://desibbrg.org/images/54495626320757967133.jpg 
http://desibbrg.org/images/00168414152609320377.jpg 
http://desibbrg.org/images/55736517154372067040.jpg 
http://desibbrg.org/images/17303656706549345930.jpg 
http://desibbrg.org/images/12106682905549835041.jpg 
http://desibbrg.org/images/85350983524913890364.jpg 
http://desibbrg.org/images/44054993325620474328.jpg 
http://desibbrg.org/images/40032303357034714408.jpg 
http://desibbrg.org/images/83687017968486795904.jpg